<svg xmlns="http://www.w3.org/2000/svg" width="70" height="72"><path fill-rule="evenodd" clip-rule="evenodd" fill="#864486" d="M55.5 39.322c0 .201-2.181-.117-2.992-.953-.887-.904-1.533-2.351-1.883-4.332-.166-.939-.315-2.073-.416-3.397l-.05-.065.028-.074-.059-.844-.03.181c-.024-.12-.066-.259-.054-.339l-.295.039c.044-.103-.25-.193-.25-.282v-.015l.262-.805.118-.782.062-.381.023-.52-.252-.132-.212.008v-.084c0-.229.156-.566.131-.827.199-.515-.034-1.104.111-1.76l.152.027.029-.528-.005.383c-.059-.037-.077-.123-.089-.241l.008-.218.055-.223c.077-.308.172-.655.144-.908.051-.173.145-.09.157-.332-.082-.151.043-.418.092-.648l-.001-.163-.066.016.126-.274-.06.258.019-.005-.018.168.014.18.052-.094.067-.365c-.02-.171-.02-.433.014-.741.035-.35.11-.734.188-.766.005-.275.021-.5.043-.725.099-.001.162-.278.215-.409l-.002-.089.086-.094c.061-.059.164-.045.187-.026l.017.138.103.266c.033.048.076.066.082.215l-.11.109c.066.031-.01.567.076.49.035.337-.053.526-.086.731.104-.375.121.163.172.202-.043.28-.02.436.016.663.034.196.077.335.07.534l-.041-.183c-.051.186.054.186.053.329l.002-.028v.159l-.027.102-.012-.102-.027-.12c-.057-.001-.068.219-.045.379.062.042-.002.557.106.622-.091.057-.036.619-.144.556.002.3.105.422.153.643-.031.258-.019.339-.096.477.019.12.017.28.073.281l.012-.279c.065.5-.1.695.038 1.176l-.071.079.148.259c-.084 0-.109-.172-.109-.198v.028l-.082.177-.035.29c.037.011.037.363.092.363h-.098c.06 0 .16.496.23.912-.037.02-.125.325-.18.3l.047.54c.034.014.062.007.047-.163l-.02-.173.02.166c.025.15.053.351.016.469.082.227.168.452.262.669-.123-.104.033.333-.062.308.064.19.021.319.133.38-.044.21-.121-.344-.158-.156 0 .388.562.59.396.704.259.431.393-.831.393-.211v.264c0 .448.064 1.088.384 1.538l-.199-.031c.05.279.248.557.398.704l-.125.046c.129.205.427.311.386.431l-.175-.14c.235.33.315.289.725.646l.112.07-.041-.247.498.458c.012-.068.102-.031.201-.021.623.264.438.091.939.185l-.029-.052.414.064c-.115-.013-.23.008-.254.05.154.039.351-.021.543-.039.016-.047-.365-.047-.027-.123.526-.137.615.167 1.129-.17l.5-.059c.203-.11.39-.237.561-.382.025-.081.025-.15.139-.241l.072.044.162-.174.137-.246c.149-.269.37-.599.446-.784.095.004.284-.276.296-.156-.064.077-.15.166-.123.202l.021-.013.222-.257c.055-.082.09-.154.08-.181l-.098-.061.4-.309c.053-.009.134.038.111.112l.113-.044c.102-.044.232-.076.328-.054.242-.104-.311-.116-.059-.195l.175.094.167-.177c.29.04.414.002.504-.036l.328-.142c-.125.177-.165.162-.42.218.082.034.153.056.021.129.006-.047-.104-.016-.223-.021l.209.111.142-.018c.198-.035.392-.142.581-.32.068-.093.279-.374.233-.449l.05-.002c.07-.115.118-.201.086-.232l-.129.153.244-.537.015.022c.233-.334.215-.478.476-.836.123-.021.206-.124.329-.192.132.027.339.144.434.186-.118-.043-.076-.07-.039-.093.044-.021.077-.079.06-.109l-.15.022c-.109-.013-.218-.088-.359-.067.075-.052.262-.03.06-.086.096-.014.21.031.31.07l.104.032.107-.013c.115-.049.254-.148.383-.323l-.073-.009.183-.111c-.125.02.012-.164.057-.321l.008-.124-.008.124-.006.064.111-.317.039-.308c.146-.444.005.194.099-.07l.06-.52.064.074c.035-.382.135-.552.203-.834.001.11.137.27.166.196-.072.244.215.267.215.374v.509c0-.187-.147-.384-.115-.593l-.056-.274c0-.107.011-.286-.07-.16.016-.158.157-.316.218-.365-.203.086-.076.141-.098.067l.121-.013v.013c0-.016-.037-.115.103-.113.137.019.119.107.021.113.197.063.281.216.352.258l-.002-.066.039.084-.065-.018.013.17.008.222-.104-.285c-.027-.085-.07-.127-.064.033.082.309.027.793.006 1.204l.082-.203c-.033.203-.027.316-.008.47l.009.275-.019.18-.027.138c-.045-.02-.123-.056-.167.141.009.06.083.041.009.241l.115-.137.146-.308c-.065.257-.108.279-.146.308-.131.294-.328.664-.537.95.02.103-.053.315.092.162-.121.284-.184.205-.303.441l.017.069c-.11.154-.12.196-.228.284.191.034-.434.675-.33.631-.189.121-.436.324-.703.521-.224.163-.415.454-.545.663l.002-.128c-.291.404-.525.882-.824 1.331-.294.434-.688.824-1.117.916-.045-.068.273-.08.363-.222l-.305.1c-.129.038-.244.04-.224-.003.442-.1.007-.116.388-.244.205.088.507-.369.568-.251.073-.102-.053-.127-.098-.111.316-.252.521-.772.795-.973l-.15.212c.039.081.154-.189.246-.212l.025-.245c.235-.293.464-.6.725-.846.289-.224.576-.484.807-.77.469-.576.791-1.239 1.018-1.912.102-.426.126-.697.209-1.111l-.013.059.026-.132-.014.074c.092-.375.102-.884.049-1.202.037.972-.126 1.901-.49 2.785-.367.899-.894 1.604-1.574 2.119-.191.14-.582.633-1.166 1.478-.48.688-.928 1.07-1.35 1.145-.182.032-.377.041-.58.036l-.4.006c-.486.086-1.018.757-1.594 2.021-.123.269-.252.521-.383.755.125-.1.245-.159.236-.049l-.134.314c-.024-.091-.226.071-.392.324-.039-.095.297-.41.26-.538-.137.236-.277.454-.424.655-.039.134-.062.354-.27.604l-.236.137c.086-.178.146-.305.273-.487.16-.143.156-.431.049-.431h-.002l-.049.317-.014.2v.039l-.023.003-.066.071.077-.105.007-.018-.329.353-.021.091-.046-.01.054-.07-.188.172-.074.164c-.02.005.088-.152-.023-.084-.127.104-.258.196-.391.277l.229.076-.303.218-.025-.089c-.352.14-.195.191-.544.254l.347-.274-.5.253.134-.108-.321.093v.002zm-46.021-15.942c.315-.114.38.13.64.095l-.486 1.955c.469.507 1.634.021 1.99.688-.117 1.867-2.615 2.047-3.59.841.183-1.403.918-2.418 1.446-3.579zm22.563-9.172c-.358.463-.886.757-1.255 1.119-1.39 1.363-1.782.284-1.377-.941.76-.261 2.043-1.288 2.632-.178zm-2.316-3.518c.479.607-.212 1.345-.217 2.005-.201-.637-.281-1.289.217-2.005zm.798-.749c.311.186.448.39.507.604-.502.616-1.115-.018-.507-.604zm27.869 38.565c.346-.11.59-.078.789.019.13.784-.751.824-.789-.019zm5.779-3.649c-.359.465-.888.76-1.256 1.12-1.392 1.362-1.783.282-1.379-.94.762-.263 2.043-1.289 2.635-.18zm-3.979 6.455c-.248.635-.93 1.035-.646 1.685-.394-.263-1.006-.218-.977-1.085.43-.305 1.046-1.189 1.623-.6zm-33.623-32.6c.802.172 1.245.512 1.527.927-.63 1.685-2.403.77-1.527-.927zm27.874 39.976c.503-.161.858-.114 1.149.026.19 1.141-1.092 1.201-1.149-.026zm-31.059-47.068c.413-.683 1.68-1.286 2.51-.914-1.47 1.374-2.273 3.217-3.209 4.965-1.298-.082-.486-2.069-1.048-3.272-.664.448-1.161.461-1.855.17-.51-2.125 3.025-2.604 3.602-.949zm13 53.945c.502-.161.857-.115 1.148.027.19 1.14-1.092 1.201-1.148-.027zm13.242-7.253c.345-.111.588-.078.787.018.131.784-.749.825-.787-.018zm-2.49-7.155c.803.173 1.246.512 1.527.927-.631 1.685-2.402.77-1.527-.927zm-13.093-17.81c.427.093.136.416.408.559-.807 1.366-2.56 1.849-1.077 3.1-2.014-.16-.925-2.944.669-3.659zm8.817-17.4l.023-.004c.615.149 1.051.578 1.133 1.37.08.738-.05 1.37-.173 1.982-.183.908-.402 1.799-.611 2.737-.031.143-.049.262-.112.447-.057.167-.331.594-.354.087-.013-.295.055-.482.121-.795.157-.726.323-1.292.396-2.069.053-.542.09-1.304-.264-1.702-.174-.195-.355-.257-.629-.329.154-.577.298-1.16.47-1.724zm-27.716-2.393c.502-.161.858-.114 1.148.027.189 1.14-1.091 1.2-1.148-.027zm-1.325 8.933c.502-.161.858-.115 1.148.026.19 1.141-1.091 1.201-1.148-.026zm5.522 4.931c1.233.908-.622 4.523-1.791 2.229-.659-1.294 1.783-2.229 1.791-2.229zm-.924-10.007c.396-.185.36.248.663.197.186 1.576-.917 3.022 1.021 3.12-1.699 1.092-2.519-1.783-1.684-3.317zm36.279 9.769c.344-.111.589-.079.787.018.131.784-.75.825-.787-.018zm-33.616 20.326c.502-.161.858-.115 1.148.025.19 1.141-1.091 1.201-1.148-.025zm20.119-37.444c-.359.463-.887.758-1.256 1.118-1.392 1.363-1.782.283-1.379-.941.762-.261 2.045-1.288 2.635-.177zm11.354.546c.315-.115.38.129.64.095l-.485 1.955c.468.506 1.634.021 1.99.688-.116 1.867-2.616 2.047-3.591.841.183-1.402.917-2.418 1.446-3.579zm-5.224 28.912c.344-.11.589-.078.788.018.131.784-.75.825-.788-.018zm-10.516-19.527c-.248.636-.93 1.036-.646 1.685-.396-.263-1.005-.218-.978-1.084.431-.306 1.048-1.19 1.624-.601zm-3.439 5.733c.802.172 1.245.511 1.527.926-.631 1.685-2.403.77-1.527-.926zm-20.25-8.164c-.359.463-.887.757-1.256 1.119-1.391 1.363-1.782.283-1.378-.941.76-.262 2.043-1.289 2.634-.178zm-4.452 18.531c.412-.683 1.68-1.286 2.51-.914-1.471 1.375-2.273 3.217-3.21 4.965-1.298-.081-.486-2.068-1.048-3.271-.665.447-1.161.461-1.855.17-.509-2.124 3.025-2.604 3.603-.95zm45.598 12.511c.315-.114.38.129.64.094l-.486 1.956c.469.507 1.633.021 1.99.687-.117 1.867-2.614 2.048-3.59.842.183-1.403.918-2.419 1.446-3.579zm8.556-27.971c-.944.45-1.981.807-2.995.842-1.648.671-.576 3.248-1.945 4.114-.428-.579-.535-1.938-.277-2.466-.119-.403-.689-.16-.869-.475-.277.073-.002.533-.197.664-.591-.629-1.062-.254-1.838-.62.145-1.472 2.238-1.912 3.021-.689.829-.871 3.866-3.309 5.1-1.37zm-29.316 39.489c.802.173 1.244.512 1.527.927-.631 1.685-2.403.769-1.527-.927zm10.032 1.269c.801.172 1.244.512 1.527.927-.632 1.684-2.404.77-1.527-.927zm-3.162-7.94c.412-.684 1.681-1.287 2.512-.914-1.471 1.375-2.273 3.217-3.211 4.965-1.298-.081-.485-2.068-1.049-3.271-.664.448-1.159.462-1.855.17-.508-2.126 3.027-2.604 3.603-.95zm-9.733 11.246c-.248.637-.93 1.037-.646 1.685-.395-.261-1.005-.216-.977-1.083.43-.307 1.046-1.191 1.623-.602zm12.539-6.947c.774.041.87 1.047 1.363 1.488-.612-.271-1.154-.641-1.363-1.488zm-.036-1.094c.345-.111.59-.078.788.018.131.785-.748.825-.788-.018zm-12.577 1.176c-.359.464-.887.759-1.255 1.119-1.391 1.363-1.782.283-1.378-.941.761-.262 2.043-1.289 2.633-.178zm15.99-45.254c-.076 1.226-3.32 1.543-2.279-.241.586-1.006 2.277.235 2.279.241zm-17.559 57.297c.575.585.759 1.111.766 1.613-1.453 1.061-2.431-.677-.766-1.613zm10.476.057c.726.385 1.06.831 1.218 1.308-1.064 1.449-2.521.086-1.218-1.308zm-22.824-63.327c-.817-.075-1.297-.358-1.626-.736.422-1.749 2.292-1.054 1.626.736zm21.08-4.795c-.609-.548-.825-1.063-.864-1.563 1.385-1.149 2.469.525.864 1.563zm19.768 8.756c-.161-.804-.028-1.345.241-1.77 1.796-.093 1.664 1.898-.241 1.77zm10.607 18.847c.351-.74.783-1.094 1.251-1.274 1.496.999.201 2.516-1.251 1.274zm-2.753 21.44c.726-.384 1.283-.409 1.766-.272.602 1.693-1.344 2.134-1.766.272zm-15.021 15.543c.811.126 1.273.438 1.578.834-.53 1.719-2.354.911-1.578-.834zm-43.542-49.434c-.735.365-1.292.375-1.772.226-.557-1.71 1.4-2.099 1.772-.226zm-4.651 12.456c-.549.609-1.063.825-1.564.862-1.148-1.384.527-2.467 1.564-.862zm.265 13.292c-.286.771-.685 1.159-1.136 1.38-1.577-.865-.419-2.488 1.136-1.38zm5.146 12.261c.018.82-.209 1.329-.548 1.699-1.785-.223-1.307-2.158.548-1.699zm9.301 9.5c.319.754.296 1.314.117 1.782-1.741.451-2.01-1.525-.117-1.782zm20.239-59.54c-.378 1.518-1.633.986-1.758 2.653-.017.232-.18 1.034-.164 1.256.066.876-.352 1.359-.132 1.927.177.457.396.752.631.923l-.07.057c-.111.096-.195.218-.258.344-.135.267-.233.436-.408.615l-.316.689-.177.441-.052.095-.012-.021-.075.176-.005.01-.005.009-.005.01-.005.008-.005.009-.005.009-.005.01-.005.009-.005.009-.005.01-.005.009-.005.01-.002.003-.003.005-.005.01-.005.009-.005.009-.005.009-.005.01-.006.009-.005.009-.005.01-.006.009-.005.01-.005.009-.005.009-.008.012-.001.002-.003.007-.005.009-.005.01-.005.009-.005.01-.005.009-.006.01-.005.009-.005.009-.006.01-.005.01-.005.01-.005.009-.005.01-.005.01-.005.009-.005.01-.005.009-.005.01-.006.009-.005.01-.006.01-.005.01-.005.009-.006.01-.005.01-.005.009-.004.008-.001.002-.005.009-.005.01-.006.01-.005.01-.005.01-.006.01-.005.009-.005.01-.005.01-.006.01c-.106.164-.194.324-.272.485l-.008.014-.007.014-.008.014-.008.014-.008.014-.007.014-.009.014-.005.009-.002.004-.008.014-.008.015-.008.014-.008.014-.008.014-.008.013-.007.015-.009.014-.008.014-.007.012-.001.002-.008.014-.008.014-.007.014-.009.015-.008.014-.008.015-.008.014-.017.028-.008.015-.009.014-.008.014-.008.015-.008.014-.009.015-.008.014-.008.015-.009.014.049.015.048.014v.003l-.064.011-.037.015-.022.014-.016.015-.012.015-.009.015-.01.014-.008.015-.009.014-.008.015-.013.003-.005.009-.009.015-.008.014-.009.016-.009.014-.008.015-.009.015-.008.014-.008.014-.008.015-.004.009-.004.007-.009.015-.009.015-.008.015-.009.015-.009.014c-.474.562-.428.953-.823 1.282l.023-.049c-.069.085-.141.27-.211.422l.164-.198-.009.015-.008.016-.01.015-.002.004-.007.012-.009.015-.009.016-.009.016-.009.015-.009.016-.009.016-.018.031-.009.015-.019.031-.009.015-.037.062-.009.015-.009.016-.009.016-.009.016-.009.015-.01.016-.008.016-.01.016-.009.016-.009.016-.009.016-.009.016-.009.013-.01.016-.01.016-.008.014-.002.002-.009.016-.009.016-.01.016-.009.016-.009.016-.01.016-.009.016-.01.016-.009.016-.009.017-.007.012-.002.004-.009.016-.01.017-.009.012-.01.016-.01.017-.009.016-.01.016-.009.016-.009.016-.01.016-.006.009-.004.007-.009.016-.01.017-.01.016-.009.016-.01.016-.009.016-.084.068-.015.098-.027.046-.023.039-.004.007-.027.046-.027.046-.028.046-.02.034-.007.012-.028.046-.028.047-.028.046-.017.029-.011.018-.028.047-.028.046-.028.047-.015.024-.014.023-.029.047-.027.048-.029.047-.011.018-.017.03-.029.047-.028.048-.028.048-.008.013-.021.035-.029.048-.029.049-.029.047-.004.008-.025.042-.029.049.317.048.316.049v.001l-.375.047-.202.049-.116.049-.071.046-.023.004-.041.049-.035.05-.033.049-.025.041-.006.009-.032.05-.03.05-.031.05-.02.035-.009.015-.031.05-.031.051-.03.051-.018.029-.013.022-.031.051-.031.051-.03.051-.015.023-.017.027-.031.052-.031.051-.031.051-.011.018-.02.034-.031.052-.031.051-.031.052-.007.017-.023.04-.032.052-.032.052-.031.052-.004.006-.028.046-.032.053-.032.053-.032.053c-2.994 4.9-5.085 8.37-6.195 10.398l-.039-.006v-.01l.036-.005-.019-.006-.017-.007v-.017l.034-.006.016-.006.008-.36.013-.361h-.003l-.068.578v.08399999999999999l.029-.007-.012-.007-.017-.009v-.008l.127.184-.003.184h-.124v-.391l.026-.009.012-.008.005-.008-.023-.008-.02-.007v-.008l.022-.009-.01-.008-.012-.009v-.162l.002-.01-.002-.021v-.043l-.003-.011.003-.011v-.022c0 .103.078.165.104.133-.026-.188-.123-.463-.12-.747.067.116.085.42.174.556.023-.461-.073-.283-.082-.788l.093.02-.03-.481-.141.214v-.003l-.035-.023-.055-.586-.01-.032c.001-.206.072-.107.079-.136l-.092-.38h-.004l-.009.046-.01-.071-.005-.035.021.136.037-.03-.06-.102-.004-.047-.029-.493-.007-.127.007.021.016.166-.016-.165-.011-.072-.005-.085.002-.005c.027-.178.129-.018.121.267.038.295-.054.274.021.527l.161-.356-.114-.862v-.022l-.115-.193-.087-.594-.038-.206-.017-.06.105.812c-.028-.414.042-.748.116-.662l-.065-.738c-.05-.136-.126-.053-.174-.053h-.015l.292.494v-.003l-.145-.066.073-.072.073-.072v-.005l.002-.068-.002-.146v-.004l-.001-.144.001-.075v-.004l-.162-.071.082-.076.08-.076v-.004l-.167-.073.083-.077.084-.077v-.005l-.174-.073.088-.078.086-.08v-.003l-.179-.076.09-.08.089-.08v-.004l-.186-.077.092-.081.093-.082v-.004l-.192-.078.096-.083.096-.083v-.003l-.198-.08.1-.084.099-.084v-.003l-.204-.082.103-.085.102-.086v-.003l-.21-.083.105-.088.105-.086v-.002l-.218-.085.109-.088.108-.091v-.001l-.225-.087.113-.089.111-.09v-.002l-.231-.088.116-.091.115-.091v.15900000000000003h-.236l-.126-.312.181-.203.181-.204v-.001l-.251-.093.126-.096.125-.095v-.001l-.256-.095-.131.049-.108.051h-.012l-.01-.243-.242-.172-.24-.169v-.002l.229-.099.112-.1.053-.1c-.007-.258-.042-.382-.164-.36-.108.018-.173.167-.218.435-.21 1.213-.484 2.757-.843 4.627l.184 7.422.007.173.005.17-.145.142c-.052-.572-.22-1.355-.22-1.835v.092l.153-.168.069.076c.011-.539.008-.938-.034-1.526-.011-1.474-.061-2.981-.089-4.55l.316-1.49-.061-.313c.078-.088.093-.489.159-.415l-.065.353c.187-.418.205-1.152.353-1.762-.026.02-.13-.003-.102-.27.043.142.08-.062.125-.285.048-.206.11-.363.143-.251.055-.208.051-.272.049-.337.005-.065-.02-.141.086-.31l-.201.23c.048-.271.145-.241.135-.373-.065.087-.149.145-.269.523-.103.43-.179 1.087-.26 1.62l-.137 1.112-.145 1.058-.047-.157c-.035.305-.086.653-.166 1.058.011.544-.006 1.031-.069 1.362.069-.134-.013 1.035.147.925-.033.18-.025.233-.034.485l.054.067c.007.359-.075.303-.059.714.063-.271.091.028.152.146l-.175 1.447c-.032.048-.056.09-.067.439l.067-.439.073-.218c-.019.287.048.236.073.311.011.275-.082.249-.127.237l.115 1.106.068-.136c.031.521-.039.959.002 1.534-.092.28-.099-.47-.147-.707l-.047.443-.044-.163.014.191.03-.028c.057.247.138.656.196.958-.125-.286-.096.443-.096.641l-.011.013.011-.013c.046-.038.064-.181.044-.482.065.034-.142.424-.099.606.026-.377-.085-.037-.085-.086v.21599999999999997l.211.019-.105.019-.105.02v.05900000000000001l.213.019-.106.02-.106.016v.133l.217.019-.108.019-.109.017v.204l.222.018.111.019.056.018-.158.005-.197.003h-.034v.063l.224.018.113.018-.168.018-.168.02v.05399999999999999l.227.018.114.018.057.018.03.018-.214.018-.215.012v.018000000000000002l.229.018.115.017c-.024-.24.012-.46.01-.608-.045-.012-.076.26-.097-.152-.003.167-.042.103-.09.089.067.426.052.659.124.915l-.071.082.072.34c-.002.253-.073-.258-.065.137.037.043.09.359.1.67l-.024-.089-.049-.169.049.169c.035.234.027.567.119.448l-.08.285.063-.053c.024.646-.137.898.07 1.742-.013-.211.051-.025.084.078-.016-.357-.117-.426-.163-.758.06-.055.203.495.198.092-.037.447.133.822.006 1.038.103.526.231.704.354 1.235l-.027-.008c.137.059.09.443.365.773l-.091-.274c.049-.007.099.123.188.296-.024-.013-.17-.013-.163.054.083.022.299.469.299.573l.156.016.084.017.047.015.04.031.02.016.016.016.045.061.012.016.012.014.022.029.012.016.011.014.011.015.034.042.012.015.011.014.012.013.005.008.006.006.012.014.011.014.012.014.012.014.023.025.012.014.012.012.036.038.012.013.012.012.012.013.036.037.012.011.013.012.012.012.013.012.012.012.012.012.013.012.012.01.013.012.013.012.013.01.012.012.026.021.013.01.013.01.013.011.013.01.026.021.013.01.013.01.163.254c-.147-.098-.29-.187-.251-.213-.196-.094-.146-.006-.069.11-.377-.284-.382-.382-.671-.608.196.34.347.443.496.545.157.098.311.216.711.448l.29-.073.204.162c.363.029-.375.014-.014.02.109.059.267.281.408.281h.20000000000000012c-.06 0 .007-.09.06-.072l.674-.16c-.57.044.448-.191-.067-.158.016-.03.288-.146.288-.207v-.016l.024.6h.001l.003-.302.005-.151.004-.077.005-.038.004-.021.005-.012.004-.007.005-.002.004-.004.005-.192.01-.194h.005l.005.188.005.185.004.135.001.024.004-.08.005-.041.004-.021.005-.013.005.313.01.31h.005l.005-.321.014-.165.005-.082.005-.041.004.304.002.306h.002l.004-.328.005-.166.005-.082.004-.042.009-.024-.12-.259-.078-.269v-.001l.128.243.124.097-.126-.029-.126-.045v.01l.265.059c.006.049-.072.156-.204.205-.078.124.388-.057.491-.035.221-.168.687-.502.954-.837l.245-.321.012-.004.006-.004.003-.002.004-.003.004-.003.003-.005.003-.003.031-.037.003-.004.003-.004.002-.004.005-.004.003-.003.002-.005.003-.004.003-.003.003-.003.002-.004.004-.004.003-.004.002-.004.003-.004.003-.004.003-.004.002-.004.003-.004.003-.002.003-.006.003-.003.003-.005.012-.015.002-.004.006-.007.003-.005.006-.007.003-.005.003-.003.003.098.003.099.002-.106.003-.055.002-.029.004-.018.003-.01.003-.008.002-.004.003-.006.003-.004.003-.004c.051-.021.095-.032.085.027.134-.166.131-.248.149-.358l.007-.011.008-.012.007-.012.005-.008.002-.004.007-.012.008-.011.007-.012.008-.013.007-.012.008-.012.016-.023.007-.012.007-.012.008-.012.008-.013.007-.206.013-.215h.002l.007.18.007.085.008.036.008.011.007.001.008-.007.007-.01.003-.003.004-.007.007-.011.008-.014.007-.012.007-.012.008-.014-.216-.012-.206-.004v-.002l.231-.012.118-.013.063-.013.035-.014.021-.013.015-.012.01-.013.007-.004.005-.008.008-.013.007-.013.008-.014.007-.012.007-.014.007-.014.007-.013h.001l.007-.013.007-.014.007-.014.007-.012.007-.014.007-.014.007-.013.004-.009.003-.006.007-.013.014-.026.007-.014.014-.027.007-.014c.069-.014.351-.477.433-.55.18-.839.467-.734.663-1.535.097-.496-.091.028-.126-.016.082-.266.109-.548.198-.751.035.041.008.205-.051.363.131-.074.068-.299.214-.57l-.061.035c.205-.72.032-.424.29-1.359-.001-.144.023-.279-.047-.269.174-.527.138-.25.299-.899-.039.018-.267.182-.346.206l-.128.001v-.2590000000000002c1-.66.175-.742.271-1.269.003.066.101.146.081.307.125-.074.027-.503.034-.833l.121.028c-.03-.313-.136-.828-.15-1.23l.072.079c-.208-.796-.752-1.637-1.343-2.005l-.269-.262c-.429-.208-.225-.082-.01.072.216.158.424.363.11.22.017-.179-.287-.219-.646-.378l-.003-.001-.007-.004-.039-.018-.009.045-.002.05h-.002l-.153-.131c-.201-.173.504.153.287-.036-.147.036-.27-.108-.551-.168l-.383-.219c-.348-.008-.688.03-1.009.113-.188-.036-.376 0-.571.063l-.199.064.215-.065c.185-.044.157-.016.157.025v-.018l-.126.239.081.133h-.011l-.008-.173-.003-.086-.007-.043-.004.15-.009.153h-.019l-.008-.167-.003.083-.01.084h-.033l-.009-.161-.009-.08-.004.119-.007.122h-.026l-.003-.155-.008-.077-.002.116-.011.116h-.001l-.762-.344v-.022l.742.367h-.011999999999999999l-.008-.146-.002.07-.008.075h-.025l-.004-.142-.007-.069-.002.105-.01.106h-.043000000000000003l-.007-.13-.003-.065-.006-.032-.005-.015-.005.12-.006.122h-.031l-.558-.313v.036l.264.139.263.138h-.001l-.008-.113-.002-.058-.007-.027-.003-.014-.005.105-.007.107h-.023999999999999997l-.007-.104-.002.05-.01.054h-.219l-.232-.293v-.013000000000000012l.422.306h-.002l-.007-.094-.002-.049-.007-.021-.004.079-.005.085h-.028l-.007-.084-.176-.153-.184-.128v-.011l.165.109.146-.045c.042-.021.209-.126.316-.228.116-.115.232-.181.262-.193l.076-.182.125-.294.249-.584.082.056.038.024-.037-.023.113-.429.163-.272.121-.203.024-.039.019.341.142-.336.118-.053c.238-.639.519-.777.827-1.401l-.212.321c-.048-.031.071-.217.142-.369.165-.122.213-.223.426-.511.119-.285.119-.483.332-.839.047.13.403-.561.52-.581-.046-.131.378-.708.354-.788.095-.203.261-.456.308-.426l-.069.153-.073.118.073-.118.117-.188v.046c.103-.167.037-.208.213-.401.023.016-.047.134-.097.237.286-.441.332-.872.64-1.197 0-.101.309-.624.144-.569.117-.12.163-.02.376-.409.048-.267.284-.405.403-.727l-.095.4.59-1.129.119-.053c.071-.185.119-.417.284-.54l-.071-.015c.212-.289.45-.726.71-1.016l.032-.451c.386-.409.746-1.075.746-1.546l.09-.006.046-.133.025-.133h.011l.008.122-.021.031-.02.007v.011l.03.025-.015.009-.015.01v-.001l.035-.005.02-.006.012-.006.005-.002.003-.005.005-.006.003-.007.002-.002.001-.004.004-.006-.045-.007-.045-.006v-.003l.053-.007.028-.007.014-.004.008-.002.006-.008-.054-.007-.055-.006v-.002l.062-.007-.031-.008-.031-.004v-.002l-.001-.007.001-.014v-.001l.073-.008.127-.028.106-.028h.01l-.08.014-.039-.007-.014-.008h-.011l-.172.01v-.008l.003-.024-.003-.008v-.001l.095-.006.049-.009.026-.008.013-.002.008-.006.006-.008.005-.009.003-.003.002-.005.004-.008.003-.009.002-.004.001-.004.004-.009-.111-.009-.11-.007v-.004l.119-.009.061-.009.031-.006.016-.003.011-.009-.118-.009-.12-.007v-.001l.129-.01.067-.009.112-.118-.03.239-.076.224.023-.003c-.04.111-.102.229-.174.304l.251-.315-.074.012.064-.221c.131-.298.327-.653.281-.862.069-.326.143-.21.231-.443.022-.346.183-.814.305-1.238.062-.226.104-.38.141-.604.027-.203.021-.334-.033-.337-.025.145-.074.336-.133.553l.003-.012-.044-.012-.043-.011v-.003l.05-.012.026-.012.014-.012.009-.012-.05-.012-.049-.013v-.004l.058-.008.03-.012.016-.012-.054-.009-.05-.004v-.012l.063.098.007.096h.028l.017-.121-.058-.066-.057-.066v-.003l.069-.008.036-.012.02-.011-.064-.007-.061-.007v.301h-.053l.104-.179.055-.096.027-.053-.068-.024-.064-.03v-.034l.085-.011.087.213.052.214h.017l-.03-.236-.015-.124-.101-.067-.096-.06v-.041999999999999996l.096-.011.049-.23-.036-.23h-.109v.402l.101-.008-.05-.011-.051-.011v-.006l.104-.004.054-.011.027-.176.007-.175h.011l.007.154-.104.071-.106.072v-.002l.11-.008.056-.011.029-.01.014-.006.01-.015.1-.064c.088-.369.1-.627.067-.867 1.204.497 2.53-1.896.152-2.614-.199-4.826 5.021-2.333 1.387-3.709.425-1.122 1.892-.548 3.005-.44 1.256.122 2.525.106 3.608.528.284-.303.829.212.856-.32 1.127 1.485 2.48.555 3.727 1.167.338.166.628.626 1.033.809.374.168.814.047 1.187.239.722.373 1.415 1.38 2.433.968.523.447 1.514 1.043 1.895.827 1.011.897 2.422 1.799 3.31 2.006 1.438 1.454 2.908 2.78 4.261 4.551.808 2.613 2.479 4.209 3.609 7.698.646 1.995 1.316 4.521 1.66 6.719.334 2.138.666 4.535.625 5.91-.016.538-.179 1.1-.318 1.667-.221.014-.387.04-.422.062-.422.063-.992.149-.999.093l.312-.068.265-.036-.265.036-.418.063.07-.035c-.372.067-.363.137-.851.192-.002-.025.256-.09.469-.139-1 .176-1.674.577-2.494.713-.143.094-1.246.42-.977.459-.309.049-.221-.072-1.022.178-.437.228-.911.229-1.506.466l.681-.326-2.299.743-.214-.016c-.347.137-.732.33-1.101.354l.062.054c-.658.155-1.559.44-2.277.57l-.779.362c-1.048.174-2.359.652-3.207 1.014l-.954.277-.252.041.422-.172.421-.137-.025-.01c.212-.073.431-.137.627-.171l-.716.13.089.041-.396.146c-.591.165-1.33.305-1.634.506-.596.207-.464.057-.919.172-1.181.5-3.642.942-3.946 1.272l1.025-.274-1.386.401.044-.107c-1.683.336-3.086 1.086-4.433 1.243-.66.206-1.513.466-2.079.677l-.198.054.02-.024-.331.109-1.294.35c-.356.082-.687.174-1.009.27-.672.178-1.325.35-1.958.513-1.354.217-1.877.591-2.807.642l.097-.03c-.203.032-.555.155-.859.244.083-.001.284-.038.467-.071-.752.186-1.469.355-2.15.516l-.197.008-.162.074c-1.771.408-3.288.724-4.551.947-5.122.902-8.858 1.193-11.212.878-1.522-.214-2.342-.632-2.454-1.264-.09-.51.225-1.211.941-2.099.356-.355.925-.824 1.711-1.407 1.074-.79 1.861-1.446 2.364-1.958.853-.873 1.467-1.82 1.846-2.836.005.349.024.682.057.999-.047-.19-.083-.304-.104-.249.037.366.176.888.279 1.417-.115-.21-.214-.786-.311-1.054.022.442.062.58.108.725l.216.771-.102-.021c.106.299.22.599.382.877-.033-.291.022-.258.021-.335l-.011-.083c.18.433.405.796.673 1.09.142.186-.178-.096-.154-.054l.352.248c.165.146.335.263.513.349l-.167-.076.044.07.203.043c.325.139.67.176 1.038.11l-.003-.014.259-.071-.07.037c-.094.034-.196.057-.309.07.143-.004.236-.033.309-.07l.242-.111.003-.002.005-.002.035-.012c.153-.064.177-.049.099.033-.08.074-.28.205-.569.243-.294.056-.434.023-.557-.001l-.483-.11c.21.11.446.182.69.207.484-.003.848-.213 1.056-.415.185-.18.29-.348.374-.485.25-.306.471-.71.661-1.214.069-.193.131-.395.187-.602.011.124-.073.428-.196.721-.135.334-.319.645-.321.737.398-.688.623-1.298.646-1.108.075-.289.13-.581.171-.874.001-.263-.113-.015-.255.341.252-1.051.329-2.285.229-3.7l-.033-.265c-.04-.229-.097-.334-.182-.319-.112.02-.235.249-.375.688-.174.546-.551.874-1.125.975-.577.102-1.079-.026-1.497-.386-.456-.397-.723-1.391-.795-2.979.046-2.359.113-4.135.205-5.317l-.011-.307c-.021-.121-.064-.172-.125-.161-.111.02-.234.206-.369.557-.513 1.353-.794 2.251-.837 2.688-.316 3.014-1.117 5.39-2.4 7.13-.366.488-.958 1.166-1.879 2.036-.812.777-1.813 1.397-1.813 1.86v-.004l-.103.061-.284.287-.009.021c-.353.443-.687.924-.991 1.441.223-.41.503-.879.828-1.318.435-.59.968-1.086 1.356-1.444l-.129.122.233-.219-.106.097c.737-.704 1.289-1.227 2.044-2.051 1.325-1.285 2.141-3.048 2.633-4.886.243-.924.416-1.875.53-2.842.034-.487.174-.975.329-1.439.147-.439.345-.995.535-1.444.064-.253.146-.489.276-.664l.235-.132.05-.017.017.028.026.064.047.119c.011.134.002.223-.021.237l-.006-.161-.057-.192-.02-.045-.067.029-.118.084.096-.055c.025-.006.101-.061.093.005l.041.268c0 .443-.039.904-.051 1.436-.016.492-.023.954-.054 1.368.026-.116.139-.278.147.028-.135-.083-.037 1.202-.199 1.496l.072 1.096c.078.114.061-1.009.128-1.2.056.333-.049.957.036.91.027-.597.033-1.375.04-2.245l.016-1.367c.004-.348.037-.742.028-1.058-.011-.327-.022-.508-.057-.772-.515-.392-.951 1.096-1.2 1.849l.024-.301c-.107.352-.214.698-.321 1.104-.051.202-.104.407-.131.633l-.076.623c-.115.823-.3 1.602-.484 2.094.062-.11-.056.358-.194.828-.139.47-.301.937-.19.873l-.385.822-.008.138c-.298.604-.315.475-.704 1.131.326-.388.051.096-.027.316-.554.696-1.35 1.364-1.959 1.875-.089.04-.16.07-.654.519l.654-.519c.06-.026.13-.06.344-.228-.401.359-.29.342-.376.459-.375.359-.398.26-.413.21-.713.646-.896 1.07-1.44 1.546l.229-.133c-.692.706-1.266 1.346-1.8 2.308-.357.409.375-.831.636-1.217l-.529.679.14-.292-.195.319.055-.027c-.218.431-.539 1.158-.739 1.709.126-.557-.453.723-.584 1.079l-.019.019.019-.019c.069-.046.187-.294.411-.827.023.086-.274.771-.36 1.111.292-.656.088-.039.171-.102-.617 1.619-.584.67-1.674-1.439.13-.006.184.271.326.221-.131-.707-.459-.678-.663-1.119-.55-1.857-.607-4.47-1.119-6.578-.13-.534-.456-1.008-.561-1.499-.632-2.963.342-5.667-.341-8.407-.043-.178.076-.123.107-.04-.275-3.732 1.489-6.091 1.522-9.616.787-3.54 3.818-7.314 7.005-9.619.915-.662 2.049-.774 2.713-1.868 3.691-1.822 7.332-4.05 11.485-4.807 1.239-.226 2.653.073 3.869-.082 2.595-.329 4.949-1.429 7.468-.572zm30.858 35.142l-.015.096-.298.116c-.251.062-.214 0-.222-.027.219-.069.392-.128.535-.185zm-.02.133c-.311 2.042-.737 4.121-.977 6.131-1.029 2.657-2.018 5.374-3.754 7.55-.436.543-1.01.844-1.431 1.389-1.228 1.581-2.775 3.747-4.272 5.523-2.6 1.682-5.794 2.836-7.992 4.695-4.612.781-9.389 3.086-14.239 3.961-2.24.402-4.954-.748-7.381-1.166-.897-.156-1.362-.016-2.209-.369-.705-.295-1.455-.438-2.108-.748-.73-.347-1.406-1.082-2.118-1.426-1.208-.586-1.929-.912-3.248-1.518-5.573-6.203-11.393-7.721-3.529-7.945l-.029.025c.179-.124.834-.012 1.574-.207l-.538.029c.021-.048.28-.072.642-.122l.082.03c.092-.079 1.051-.217 1.319-.275.667-.091 1.364-.197 2.089-.318l.545.034c-.315.044-.612.114-.593.063-.375.116-.195.119.042.125-.812.155-.954.125-1.572.302 1.376-.102 1.136-.257 2.701-.435l.395-.248.438.023c.627-.176-.755.027-.145-.174.256-.016.601-.109.882-.188l.285-.059c-.132.082.019.133.119.131.236-.078.788-.143 1.201-.23l-.087-.096c.023-.033.214-.101.456-.17l.874-.202.058-.008c-.017.052-.331.116-.587.175-.187.133.651-.101.813-.061.632-.224 2.226-.658 2.913-.905l.615-.163c.09.004.157.016.067.067.382-.093.489-.17.657-.263.561-.154 1.131-.312 1.712-.479.104.027 1.087-.205 1.276-.207 1.48-.604 1.581-.308 3.024-.818.89-.329-.12-.047-.077-.107.501-.152.988-.364 1.396-.458-.044.062-.338.171-.642.255.225.035.548-.189 1.108-.295-.05.005-.251.049-.105-.02 1.348-.406.729-.318 2.486-.83.242-.108.49-.189.426-.24 1.014-.246.516-.08 1.723-.405-.052-.021-.391.013-.475-.039l.429-.145 2.347-.753c-.119.046-.253.116-.545.205.177.064.887-.33 1.486-.513l-.025.116c.539-.207 1.461-.596 2.168-.775l-.137.104c1.359-.584 2.99-1.146 4.156-1.617l.656-.176c1.602-.672-1.627.562-.488-.02.2.092.629-.221 1.312-.484l.038-.015.117-.042.304-.097c.461-.093-.926.382-.41.282.17-.165.482-.207.965-.415-.075.125 1.036-.368.766-.16l1.676-.797c.299-.056.799-.249 1.165-.398l.414-.158c.134-.073-.087.025-.414.158-.417.153-.421.128-.392.081l1.367-.506c-.035.072.797-.118.854-.1 1.018-.424 1.584-.729 2.357-1.062l.022.096.012.042-.012-.042.714-.395.588-.217c.092-.025.209-.066.376-.139l.106-.039-.438.363.627-.285h.212c1.15-.557 1.68-.57 2.893-1.079l-.691.237c-.013-.055.381-.195.67-.32.308-.037.493-.105.945-.249zm-47.829 17.57c1.222.272 2.083.561 2.661.882l.033-.023-.002.041.178.109-.016-.18.089-.105h-.011c-.029 0 .157.155.179.34l.142.192.065.1.079.112.035.024-.017.014.011.018c.078.015.143.081.196.135l.116.448-.091.004.009.135.016-.102c.24.027-.021.279.105.411l-.106.075c.1.053.013.111-.006.166l.019.049.063.008-.09.05.027-.058-.016-.002-.002-.047-.035-.053-.037.018-.023.089c.082.112.128.276-.026.328l.092.124c-.095.037-.11.129-.168.174l.063.025c-.087 0-.031.067-.016.114l-.075-.013-.036.239-.08-.118-.042.146c-.021.078-.098.026-.146.035.112.03.066.13.103.168-.123.023.004.17-.058.246l-.013-.059-.019.083-.017-.018-.022.032-.014.021.014-.021-.002-.033c-.05-.028-.085.015-.085.059.049.039-.074.119.012.184l-.197.047c-.037.065.037.141.048.211l-.148.052.024.093.049-.051c-.014.136-.184.094-.138.256l-.072-.019.011.08-.142-.138-.004.008-.021.035-.028.049.069.127.038.023-.038-.023-.085-.05.035.3-.216-.031-.067.119.071-.003.016-.038-.016.038c-.006.039-.024.087-.083.087l.028.293-.123-.014c-.013.081-.066.035-.03.168l-.04-.186-.093.143c-.021.354.168-.08.096.214l-.066-.011-.036.086c-.108-.08-.225-.218-.375-.263l.035-.037c-.033-.13-.165-.163-.212-.177l.069-.075c-.032-.055-.176.009-.113-.093l.051.021-.158-.178-.031-.023-.078.178-.041-.225-.09.053c-.11-.141-.119-.022-.216-.108l-.02.048-.062-.1.08-.01-.127-.052c-.026.037.04.112-.059.11-.152-.008-.004-.285-.208-.214l-.038-.192-.15-.07-.096.049.03-.078-.053-.025-.327.051-.026-.143.067-.016-.003-.01-.077-.027-.067.047-.033.107-.097-.062.043-.148-.025-.008-.087-.013-.051.191-.005-.112-.09.152-.236-.076.156-.013.036-.126.042.051-.011-.135-.189-.055c-.029.013-.124.006-.152.075l.003-.04-.072.039.042.036-.158.024.009-.023-.222-.018c.004-.172-.083-.097-.143-.189.062.053-.051.111-.056.18l.141-.032-.03.065c-.079.025-.121-.002-.155-.043l-.031-.06-.082-.048.001.068-.044-.105c.006.102-.061.061-.126.062l-.057.021.057-.021.028-.012c-.068-.026-.167-.043-.203-.025l.011-.082-.12-.049.049-.064c-.094-.042-.096-.133-.146-.25l.107-.02c.005.1.076.029.121.034l.041.102c-.022-.057-.024-.125-.009-.204l-.126-.006-.052-.15-.088-.039-.011-.131h.011c.014 0 .063-.076.151.025l-.061-.19-.029.021.009-.019.02.056.09-.038c.017.059-.058.17.052.174l.163-.221-.074-.014.017-.215c.039.023.117.072.137.027l-.032-.082-.087-.003-.105.032.105-.032.308-.125c-.042-.047-.033-.104-.119-.095l.127-.076-.04-.035.082-.055c-.153-.061.043-.191-.031-.205.156-.029.25-.209.261-.345l.055.06c.076-.237.071-.578.182-.699l.009.103.142-.054.037.139-.202.05.128.073c-.08.064-.039.236-.172.256l.032-.057-.107.031.083.105c-.229.3-.345.648-.538.938-.025.106-.033.184-.099.256l.011-.008-.022.021.011-.014c-.082.053-.115.193-.132.299l1.617-2.987c-.07.004-.154-.012-.181-.054l.004-.092c.053.049.163.039.193-.027l-.009.16.09-.168c-.024-.05-.104-.146-.077-.219l.096-.021-.054.153c-.046.033.021.168.07.168h.002l.705-.048v-.065l-.339.024-.358.096h.004l.057-.192-.038-.085.038-.009.003.015.029-.059-.054-.078.071.042.055-.101-.185-.059.016-.09.079.047.048-.135.062.15.012-.148.061.062.047-.084zm3.45 3.21l-.042.105.072-.067-.03-.038zm-.127.298l-.022.05.011.154.09.061c.03-.137-.069-.15.006-.273-.018-.067-.071-.005-.085.008zm-.266.542l-.03.057.03-.057zm-.174.322l-.004.01.035.016-.031-.026zm-.044.081l-.118.211c.038.059.081.111.009.154l.098.034c.025-.065.025-.19-.072-.234.083-.021.082-.103.083-.165zm-.253.449l-.044.078.013.012.031-.09zm-.851 1.193l-.004-.004v.018l.004-.014zm-.018-.017l-.038-.034.035.048.003-.014zm-.107-.098l-.007-.006v.014l.007-.008zm-.798-.596l-.351-.199-.044.082.072-.045c.022.221.219.061.319.176l.004-.014zm-.408-.228l-.047-.024.047.024zm-.451-.211l-.1-.041.083.056.017-.015zm-.949-.326l-.085-.023-.041.061.126-.038zm-.374-.095l-.066-.015-.041.109c.089.015.085-.044.107-.094zm-.463-.085l-.077-.013-.006.067.083-.054zm-.092-.016l-.152-.072c-.059.06.088.161-.104.154.14.146.181-.056.256-.082zm-.216-.428l.032-.098.021-.038-.044-.023c-.045.058-.017.107-.009.159zm1.962-3.701l-.078-.061.078.061zm-.601.515l.01.026-.01-.026zm-.008.466l-.02-.229.057.094.034-.17.06.127c.021-.045.051-.111-.018-.193l.106-.03-.125-.038-.029.077-.049-.074-.188.169c-.038.102.153.175.172.267zm-.127-.06l-.049-.013.063.023-.014-.01zm.049.263l-.024-.127.065.009-.083-.065c-.124-.016-.025.124-.033.18l-.174-.039.08-.065c-.156.015-.103.167-.1.231l-.011.027.011-.027.057-.027.007.068c.109-.01.154-.042.205-.165zm.083-.156l-.04.039.04-.039zm-.215.322l-.043.055.061.002-.018-.057zm-.803 1.123l-.041-.045.041.045zm-.602.955l-.029.127.007.044.022-.171zm1.45 1.094l.047-.055-.054.018.007.037zm.717.24l.079.009-.037-.042-.042.033zm.43.154l.034.02.011-.037-.045.017zm3.256-3.784l-.047-.062.047.062zm-.086-.036l.004.041.017-.006-.021-.035zm31.75-17.736l1.168-.34c-.162.029-.41.088-.923.225l-.245.115zm3.314-.965l.55-.159 1.351-.472c-1.226.246.856-.227.131-.151-1.354.428-1.035.435-2.494.841-.545.205.312-.021.467-.061l-.005.002zm6.178-1.799l.131-.037.477-.132c-.216.05-.417.107-.608.169zm1.255 2.043l-.896.332-.023.025c.488-.142.721-.25.919-.357zm-16.552 6.115l-.047.018.017.004.03-.022zm-.24.09l-.533.195c.146-.043.318-.102.498-.174l.035-.021zm-1.464.539l-.081.029.036-.005.045-.024zm-10.049 3.047c-1.415 0-2.781 1.048-4.099 1.438.055.021.142.121.022.18l.417-.335c1.338-.211 2.242-1.283 3.701-1.283h-.041zm-4.77 1.815l-.515.149c.156-.033.335-.085.515-.149zm-5.088 1.404l-1.104.279 1.012-.234.092-.045zm-10.485 2.098l-.917.112-.235.092c.389-.056.785-.14 1.152-.204zm-4.058.349l-.725.014-.172.115c.968-.025.793-.07.897-.129zm-6.053-6.42c.201-.475.416-.928.647-1.355l-.052-.009c-.31.567-.434.925-.595 1.364zm9.048-4.701l-.162-.096c.064.072.348.431.162.096zm4.777-2.921l-.008-.208.008.208zm-1.338-1.511c.111-.127.184-.217.269-.436.08-.203.146-.453.229-.615.09-.171.16-.301.309-.385.202-.004.254.141.34.283l-.108-.093-.075-.073c-.022-.029-.129-.111-.22-.016.041-.033.094-.055.145-.027l.094.093.102.21.095.395c.039.266.072.639.066.969-.028.057-.044.002-.053-.104l-.022-.459c-.011-.396-.064-.661-.076-.381.056.61.051 1.355.127 1.794-.041.278-.091.554-.149.827l.158-.271c.07-.336-.055-.689.042-.896.058-.106.061.236.057.479l.064-1.089.007-.169.002-.24-.025-.656c-.046-.158-.076-.352-.144-.492-.075-.131-.152-.22-.285-.238-.182-.085-.254.029-.33.062-.072.044-.13.128-.179.216-.097.178-.142.373-.173.541l-.082.42c-.032.129-.064.211-.185.351zm-.146-.062l-.112.02.098.01.014-.03zm-1.891.097c.286.193.624.27.948.256l.24.051.168-.129c-.229-.019-.509.014-.795-.051-.279-.055-.593-.203-.747-.398-.186-.289-.218-.474-.237-.537l.038.016c.067.109.184.294.129.033l.161.35c.055.095.107.18.322.326-.555-.439-.752-1.641-.861-2.184l-.031-.312.031.312c.007.166-.028.212.029.525l-.111-.589c-.015.313-.01.606.053.986.033.188.08.401.168.638.094.233.215.514.495.707zm1.73.194c-.35.144-.507.119-.536.113.096.016.246.043.536-.113zm-2.473-2.17c-.027-.244-.043-.488-.056-.732l-.033.292c.013.1.062.461.089.44zm-2.41.396l.014-.234c-.126.393-.161.528-.014.234zm-7.066 9.37c-.118.257-.24.512-.345.773l-.109.29c.14-.358.291-.713.454-1.063zm10.939 7.412l.316-.112-.498.106.182.006zm8.085-1.614l.797-.221-.528.106c.02.026-.17.085-.269.115zm4.793-1.3l.409-.115-.083-.017-.326.132zm5.286-6.233c-.156.036-.459.105-.76.204.204-.036.61-.139.76-.204zm-.801.262l.355-.072.047-.029-.402.101zm-4.955-23.911l-.181.302.181-.302zm-1.312 2.198l-.696 1.165c-.041.189-.055.337-.302.67.023.017.046.064.142-.038.188-.338.449-.893.331-.905.221-.248.391-.613.525-.892zm1.221 8.406l.009.036.003-.019-.013-.021.001.004zm-8.259 7.907v-.006l-.002-.005-.001-.007-.001-.005-.001-.007-.002-.005-.001-.006-.001-.006-.001-.006-.001-.005-.002-.012-.001-.007-.001-.005-.002-.006-.001-.005-.001-.006-.002-.007-.002-.005v-.006l-.002-.006-.001-.006-.001-.006-.001-.005-.007-.003-.001-.006-.001-.006-.001-.005-.001-.006-.002-.007-.001-.006-.001-.004-.001-.007-.002-.011v-.002l-.002-.01-.002-.007v-.006l-.002-.005-.001-.006-.001-.006-.001-.006-.001-.006-.001-.006-.001-.006-.001-.006-.001-.007-.002-.007-.001-.005v-.005l-.002-.006-.001-.006-.001-.007-.001-.005-.001-.007-.001-.005-.001-.007-.001-.005v-.002l-.001-.005-.001-.007-.001-.005v-.005l-.001-.007-.131-.065c.11.499.141.403.207.441zm-.398-3.122l.109-.014.11-.014v-.012l-.112-.016.056-.014.056-.014v-.029l-.114-.015-.057-.014-.029-.014-.016-.014.108-.015.107-.015v-.028l-.232-.015-.233-.015v-.074l.113-.014.056-.016-.084-.014-.084-.016v-.046l.11-.014.055-.016-.082-.015-.083-.016v-.06l.107-.016-.054-.016-.054-.016v-.015l.106-.016-.053-.016-.053-.014v-.26900000000000013l.098-.016c-.083-.006-.003.691-.134.071-.02.675.219.505.283.882zm5.436 1.057h.002l-.047.041.052-.015-.005-.007c.12.145.087-.02.227-.02h.006l.002.031.001.015.002-.022.002-.023h.002l.002.028.002.014.002.007.004-.025.001-.023h.021000000000000005l.002.021.002.011.002-.014.002-.018h-.257v-.133l.137.085.069.024.069.023h.002l.002.016.002.008.002.004.002-.014.002-.014h.002l.002.014-.146-.01-.145-.172v-.097l.298.265h.019000000000000003l.34.007.341-.009v.002h-.665l.075-.033.085-.042.014.022.008.053h.014l.083-.219c.206.123.088-.256.274-.213l.082.121.028.053v-.004l-.023-.063.007-.033.016-.017v-.016l-.017-.006.005-.002.012-.004v.403h-.01l.002-.207.008-.105.002-.053.002-.055v.211l-.003.209h-.001l.002-.214.002-.108.003-.057.002-.027.003-.018.002-.008.002-.006.002-.004.003-.004.002-.002.003-.002.002-.004.003-.002.002-.003-.081.04c-.134-.193.183-.115.136-.296l.114.013c-.064-.092.03-.079.062-.112l-.004-.044-.052-.036.09.007-.038.029.013.01-.009.034.015.057.038.005.003-.004.038-.045.005-.006c-.041-.122-.059-.256.087-.246l-.072-.123c.092 0 .103-.071.159-.095l-.061-.03c.082.018.031-.047.009-.083l.072.021-.001-.176.098.092.011-.112c.003-.061.087-.028.132-.039-.113-.013-.102-.091-.15-.11.111-.038-.066-.111-.046-.163l.037.029-.02-.05.023.002.183-.025.179-.016v.016l-.161.02-.046-.064-.155-.09.101-.128c-.015-.056-.128-.048-.184-.067l.062-.113-.085-.02.002.051c-.083-.052.051-.162-.098-.174l.056-.051-.067-.012.182-.072-.003-.004-.019-.029-.003-.004-.023-.033-.133.025-.035.027.035-.027.077-.059-.252-.02.103-.186-.002-.002-.002-.003-.003-.003-.002-.002-.002-.002-.002-.002-.002-.003h-.001l-.002-.003-.003-.002-.002-.002-.003-.002-.002-.003-.002-.002-.002-.013-.006-.011h-.315v.018l.153-.002.076-.003.036-.002.017-.003-.139-.002-.143-.002v.996h.292l-.002-.503-.002-.253-.003-.127-.002-.065-.002-.033-.003-.018-.002-.01-.003-.005-.018.062.027.018-.027-.02-.049-.08-.206.055.021-.125-.093.005.095-.085-.113-.085c-.152.086.08.176-.065.18l-.009-.079c-.098-.009-.191-.099-.321-.066l.03-.042c-.019-.088-.112-.055-.155-.055l.039-.092c-.035-.041-.136.075-.108-.041l.046-.001-.164-.101-.03-.009-.022.191-.08-.189-.057.084-.19-.017-.002.051-.071-.063.057-.042-.108.004c-.011.044.058.084-.016.124-.111.048-.078-.407-.209-.258l-.083-.309h-.13600000000000007l-.054.085-.003-.085h-.04700000000000001c-.053 0-.177.233-.218.322l-.068-.05.043-.006-.008.009-.026.011-.035.008-.033.073.016.113-.09-.015-.025-.311-.01-.155h-.009l-.067.184.035.274-.044-.061-.004.194-.188.041.098-.074-.023-.125.05-.143-.062-.29h-.1520000000000001c-.011 0-.085.244-.073.321l-.015.058-.031.113.043.037-.091.104-.005-.018-.15.084c-.08-.148-.098-.044-.185-.097.067.018.025.12.058.18l.072-.091.014.07c-.071.112-.158-.018-.25-.008l.033.058-.075-.073c.058.084.002.073-.014.11l.168.045.171-.045v-.023c0 .013-.228.067-.216.1l-.135-.056-.054.07-.07-.062-.071.13-.072-.083-.05.023.073.054h-.002l-.003-.134-.008-.067-.004.097-.005.103h-.009000000000000001l-.005-.124-.005-.063-.005.094-.005.093h-.002l-.003-.12-.004-.058-.005-.028-.004-.013-.004.108-.004.111h-.002l-.004-.111-.005-.053-.005.082-.006.082h-.002l-.002-.106-.004-.05-.005-.023-.005.09-.005.09h-.002l-.002-.099-.004-.046-.005-.023-.005-.009-.005.088-.003.088h-.002l-.005-.089-.004-.042-.004-.021-.004.077-.005.075h-.001l-.005-.08-.005-.039-.004-.018-.005-.007-.002-.003-.001-.001-.005.002-.004.001-.005.004-.004.071-.003.07h-.001l-.005-.063-.004-.032-.004-.013-.005.053-.005.055h-.001l-.004-.057-.005-.027-.004-.011-.004.047-.004.048h-.002l-.004-.049-.004-.022-.005.032-.005.039h-.005l-.004-.041-.004-.018-.004-.008.041.041.093-.143.086.103-.018.116.087.016.007.008-.007-.008c-.026.006-.099.067-.136-.048l.001.21.023.021-.015.021-.008-.043-.081-.012c-.004-.051.084-.102-.006-.157l-.183.104.062.042-.041.157-.116-.068.027.069.077.032.084.02-.084-.02-.27.023.125.086-.104.047.046.025-.061.041c.156.033.022.133.097.135-.138.037-.138.197-.079.277l-.075-.012.272.457-.073-.039-.068.109-.118-.045.119-.145-.143.035c.024-.08-.122-.16-.019-.238l.005.049.071-.07-.126-.022c.022-.284.012-.578.193-.783.023-.08.037-.146.11-.18l-.012.002.023-.008-.011.006c.089-.014.148-.133.192-.213l-.004.003-.004.003-.004.003-.004.031-.002.029h-.002l-.009-.02-.003.006-.004.014h-.059v-.035l.003.002-.003.003v.009000000000000001l.004.001-.004.006v.003l.008.004.004.007h-.001l-.004.002-.004.004-.004.004-.004.002-.004.004-.003.004-.004.002-.003.004-.004.004-.004-.014-.004-.016h-.001l-.004.021-.004.012-.004.008-.004.006-.004.005-.004.004-.004.003-.004.004-.004-.031-.004-.032h-.001l-.002.037-.005.023-.004.012-.004.009.085.006.086.003-.094.004-.048.005-.027.004-.015-.051-.007-.052h-.003l-.004.058-.005.03-.004.018-.004.01-.004.006-.002.006-.002.002-.003.004-.004.003-.003.003-.004.005-.003.004.004.024c-.252.263-.345.61-.268 1.051l.003.02.002.01-.294.009-.294.017v.001l.3.018.15.013-.226.007-.225.02v.038l.312.02.154.004.08.014.042.016.021.004.015.02.007.005.005.013.006.016.001.004.006.018.002.008-.326.012-.324.011v.001l.337.019.168.009.086.01.046.02.028.018.013.01-.34.008-.338.015v.002l.356.017.18.012.09.007.051.018.023.002.017.016.011.013.005.006.016.036.006.014.003.004.016.035.007.016.001.002.009.018.008.018.007.016.001.002.009.018.004.008.005.01.019.033.004.01.005.008.082.051.062.018v.002l-.042.015-.019.012-.01.005.005.018.008.016.006.014.002.004.011.017.002.005.008.012.023.033.005.006v.027999999999999997l.021.016.01.008.009-.135.013-.129h.001l.012.161.007.079.006.044.013.036.012.023c.027-.062.079-.123.125-.135l.071.023-.062-.01-.184-.223h-.05v.363l.115-.363h-.067l-.048.362v.631h.121l.001-.312.001-.154.001-.077.002-.037.001-.019.001.062-.064.068-.064-.004v-.068l.068-.034.034-.017-.052.16-.05.299v.133h.142l-.142-.432v-.082l.074-.041.038-.02-.056-.008-.056-.001v-.208l.08.105-.04.054-.04.053v.002l.164-.422h.002l-.083.216-.083.216v.002l.099-.434h.044l.024.001.012-.001h.006l.005.229.003.117.001.057.004.032.002.015.002.01v.004l.002.004-.102.004-.102.003v.002c0-.01.266-.065.315-.032l.034.087-.019-.059c-.01-.045-.081.002-.09.047l.005.002.009.007.017.003.022.014-.021-.014-.008.003.019.021.044.045.002.002.001.002.052-.029-.023.031-.027-.002.021.021.017.016.081-.039-.057.062.008.008.05.044.007.007.106-.16.069.021-.063.064.097.055-.142.045.119.023-.07.051.188.006.237.044v-.003c0 .384.998.389 1.854.237l-.178-.107h.06500000000000003l.003.1.004.05.003-.075.004-.074h.023l.004.095.004-.086.023-.009h.003l.092.092.093-.053v-.04h-.16599999999999998l.003.09.002-.045.002-.045h.162v.081l-.04-.043-.059-.038h.007l.035-.131.056.064v.067h.0010000000000000148v-.006l-.033.006h.006zm-2.308-3.407l-.003.002h-.003l-.003.001-.002.001-.005.003-.003.001-.003.001-.003.002h-.003l-.004.001-.002.002h-.003l-.003.001-.002.001-.004.001-.002.001-.003.002-.003.001-.003.001h-.002l-.001.001-.003.001-.003.001-.003.001-.003.001-.003.001-.003.002-.003.001-.003.001-.003.001-.003.002-.002.001-.004.001-.003.001-.003.001-.003.001-.002.002h-.001l-.002.001-.003.001-.003.001-.003.002-.006.003-.003.001-.002.001-.001.001h-.002l-.003.002-.003.001-.003.002-.003.001-.003.001-.002.002-.003.001-.001.001h-.002l-.003.002-.003.001-.003.002-.003.001-.003.002-.003.002-.002.001-.003.002-.003.001-.013.019-.003.001c.037.084.129.035.102.168.113.007-.033-.198.035-.238l.032.067.029-.095zm8.288-17.508l-.327.548c.06-.065.139-.173.292-.406l.035-.142zm-.928 1.555l-.162.271-.318.681c.426-.511-.26.388.047.13.355-.658.19-.569.615-1.246.116-.276-.122.076-.182.164zm-2.79 4.672l-.028.048h.044l-.016-.048zm-1.741 2.916l-.261.436.007.024c.171-.213.222-.34.254-.46zm2.329 5.04l.016.026.005-.011-.021-.015zm.07.12l.002.004.002.003.001.004.002.004.004.008.002.004.002.004.001.004.002.004.002.004.002.004.002.004.002.004v.001l.001.002.002.004.001.004.002.004.002.004.002.004.002.004.002.004.002.004.002.003v.001l.001.004.002.005.002.003.002.005.002.004.002.004.002.004.001.004.002.005h.001l.001.004.001.004.002.004.002.004.002.004.002.005.002.003.002.005.002.004v.002l.001.001.002.005.001.004.002.004.002.004.001.004.002.004.002.004.002.005.002.004.001.004.002.004.002.005.001.004.002.004.001.004.002.005.002.004.002.004v.002l.001.002.002.004.002.004-.112-.254-.002-.006zm-.087 6.612l-.003-.146-.012-.037-.004-.026-.003-.004-.004.004-.004.01-.003.014.115.013.115.012v.001l-.124.016-.063.016-.033.014-.02.016-.011.016-.008.014-.006.016-.003.008-.002.008-.005.016-.004.014-.004.016-.004.014-.004.016-.005.014-.008.032-.004.015-.004.014-.004.016-.004.016-.004.016-.009.006-.002.011-.002.006-.004.015-.004.015-.004.015-.004.016-.004.016.179.015.178.016v.005l-.187.01-.097.016-.05.016-.027.016-.017.015-.01.015.193.016.193.013v.003l-.206.016-.105.016-.054.016-.03.016-.017.014-.011.016-.007.016-.003.007-.003.009-.006.016-.005.016-.004.015-.008.007-.005.015-.004.016-.005.015-.006.021-.006.02-.006.019-.006.021-.006.019.152.02.152.02v.001l-.165.021-.085.018-.047.021-.032.038.264.02.264.018v.002l-.286.018-.148.021-.075.019-.042.02-.024.019-.015.019-.01.018-.003.002-.007.02-.007.018-.007.02-.007.018-.006.02-.182.018-.182.005v.002l.169.02.081.018.037.019.016.019.004.02-.154.018-.153.012v.004l.146.019.068.018.026.036-.116.019-.124.017v.018000000000000002l.123.018.057.019-.083.018-.097.016v.055999999999999994l.1.018.045.018-.067.018-.078.015v.018l.082.018.04.012-.053.006-.069.016v.018l.068.017.03.019-.044.018-.054.014v.018000000000000002l.051.019c.043-.011.12-.038.114.035l.035-.251c.423-.604.367-1.033.617-1.789l-.014.177h.003zm-.839 2.164l-.001.004-.001.004-.002.004-.002.005-.001.005-.002.003-.002.005-.002.004-.001.004-.001.004-.001.005-.002.005-.001.003-.004.01-.002.003-.002.004-.001.005-.001.004-.002.004-.001.005-.002.004-.001.004-.002.004-.002.005-.002.003-.002.004-.001.006-.003.004-.001.004-.001.004-.002.004-.001.004-.002.005-.002.004-.001.003-.002.005-.002.005-.001.003-.002.005-.001.004-.001.004-.002.005-.002.003-.001.004-.002.005-.002.004-.002.004-.002.005-.001.002-.002.006-.002.004-.001.004-.002.004-.002.004-.001.004-.003.005-.002.004-.001.003-.002.006-.001.002-.002.005-.002.005-.001.004.104-.27zm-1.482 2.318l-.007.008-.007.005-.007.008-.014.015-.007.006-.007.008-.007.006-.001.002-.006.005-.006.007-.007.008-.009.004-.007.008-.007.006-.007.007-.007.007-.007.007-.001.002-.005.005-.008.006-.007.006-.014.015-.007.006-.008.007-.007.006-.007.007-.002.003-.005.004-.007.006-.007.006-.007.008-.007.006-.007.007-.008.006-.007.007-.007.006-.002.002-.005.005-.007.005-.008.007-.015.013-.007.006-.007.006-.008.006-.007.006-.004.003-.004.003-.007.006-.008.007-.007.006-.01.001-.008.005-.007.007-.007.006-.008.006-.004.004-.003.001-.008.008-.007.004-.008.007-.007.005-.007.006-.008.006-.007.006-.008.006-.004.004-.003.001-.008.006c.017.046.266-.206.433-.339l.033-.067zm-4.792-.434l-.003-.007-.042-.072-.003-.007-.001-.003-.002-.004-.048-.089v-.001l-.002-.005-.041-.079-.004-.006-.002-.006v-.002l-.003-.005-.003-.007-.003-.007-.003-.007-.013-.026-.003-.007-.003-.007-.003-.007-.004-.007-.003-.007-.003-.007-.003-.006-.003-.008-.003-.007-.004-.006-.002-.008-.004-.006-.114-.092c.089.184.214.351.325.508zm-1.122-4.56v-.014l-.001-.008v-.006l-.001-.008v-.028999999999999998l-.001-.006v-.044l-.001-.007v-.037000000000000005l-.001-.007v-.007l-.001-.007v-.03l-.001-.008v-.054l-.001-.007v-.03l-.001-.007v-.023l-.001-.009v-.06l-.001-.008v-.015l-.001-.009v-.017l-.001-.008c-.031-.135-.047-.011-.064.048l.077.417zm-.168-3.645l-.004-.127-.02-.636-.002-.059-.049.01c-.001.354.047.552.075.812zm7.139 3.108l.048-.076.001-.002-.075.037.026.041zm.131-.223l.007-.014.011-.021.001-.004-.027-.128-.095-.05c-.012.097.088.123.021.211l.082.006zm.152-.452l.007-.056-.007.056zm.005-.295l-.001-.009-.039.01.04-.001zm-.011-.069l-.001-.003v-.019l-.001-.003-.001-.002v-.003l-.001-.004v-.005l-.005-.003v-.003l-.001-.002-.001-.004v-.002l-.001-.007v-.002l-.001-.006v-.004l-.001-.002-.001-.004v-.005l-.004-.003v-.004l-.001-.002v-.003l-.001-.003-.001-.004v-.003l-.001-.003v-.008h-.001v-.009000000000000001l-.001-.003-.001-.003-.001-.004v-.003l-.001-.003v-.001l-.001-.004v-.002l-.001-.003-.001-.002v-.004l-.001-.003-.001-.002v-.006l-.001-.004v-.002l-.001-.003v-.007l-.001-.002-.001-.003c-.067-.006-.133-.002-.112-.067l-.092.049c.028.04.108.098.21.064-.058.057-.005.107.031.143zm-.127-.391l-.001-.002-.031-.062v-.001l-.018.006.05.059zm-.952-.88l-.005-.001-.002.009.007-.008zm-.017-.009l-.008-.003-.03-.014h-.002l.032.026.008-.009zm-.106-.047l-.007-.003v.009l.007-.006zm-.759-.236h-.005l-.005-.001-.005-.001-.005-.001-.001-.001h-.012l-.005-.001-.005-.001-.005-.001h-.009l-.005-.001-.004-.001-.005-.001-.005-.001h-.014000000000000002l-.005-.001h-.005l-.005-.001h-.005l-.005-.001h-.004l-.005-.001-.005-.001-.005-.001h-.005l-.005-.001h-.01l-.005-.001h-.006l-.004-.001h-.005l-.004-.001h-.011l-.005-.001h-.005l-.005-.001h-.004l-.005-.001-.005-.001-.005-.001h-.015l-.01-.013h-.034l-.005-.001h-.011l-.005-.001h-.005l-.004-.001h-.005l-.009.095.041-.07c.075.193.179-.027.287.036l-.002-.019zm-.366-.051l-.026-.002-.021-.001.047.003zm-.399-.013l-.008.001-.069.001-.009.001.078.018.008-.021zm-.79.097h-.002l-.03.008-.03.006-.009.002-.001.072.072-.088zm-.3.082l-.023.007-.028.009.027.117c.065-.028.033-.08.024-.133zm-.564 3.217l.075-.065-.075.065zm-.163-.603l-.026.001.026-.001zm-.346-.14l.18.059-.101.017.112.074-.131.012c.025.03.063.074.161.041l-.03.095.091-.094-.044-.042.082-.021-.026-.185c-.048-.056-.214.062-.294.044zm.12-.073l.04-.031-.055.037.015-.006zm-.22-.061l.104.033-.046.044.099-.037c.084-.08-.071-.062-.107-.091l.142-.104-.008.078c.097-.11-.047-.127-.089-.155l-.01-.02.01.02-.022.048-.051-.026c-.075.076-.076.121-.022.21zm.063.122l-.006-.044.006.044zm-.095-.285l-.006-.053-.045.038.051.015zm.056-.964l.051.026-.051-.026zm.482-.484l.03-.051.007-.027-.037.078zm1.076-.65l.01-.068-.029.039.019.029zm.583-.078l.058-.026-.039-.022-.019.048zm.355-.032l.031.005-.003-.04-.028.035zm1.1 3.429l-.052.026.052-.026zm-.035.068l.035.01-.004-.018-.031.008zm-4.483-9.062l.103.078c-.038-.044-.096-.279-.103-.078zm.047-4.153l-.026-.105.026.105zm-.331-2.298l.179 1.061c-.045-.099-.083-.056-.109-.3.007.474.09.53.096.921-.11.124-.043-.688-.136-.458.017.275.043.686.154.901l-.058.442.122-.156c.028-.178-.119-.351-.036-.464.053-.059.072.118.091.242-.041-.281.061-.775.015-1.345-.042-.604-.237-.452-.318-.844zm.139-.051l.048-.071-.066.052.018.019zm-.228-1.258l.109.596-.052.188.11.106c.05-.126.026-.458-.011-.678l-.116-.546c-.014-.545-.013-.54.017-.541.023.026.066.145.083-.208l.047.847c.015-.229.007-.449-.009-.657l-.03-.295-.055-.095-.187-.221-.112-.075.112.075.057.223-.086-.153c.059.162.043.347.062.566l.061.868zm.054 1.096c-.02-.207-.014-.283 0-.31-.027.07-.048.13 0 .31zm-.14-2.308c-.015-.097-.048-.256-.207-.249.053.008.106.05.129.11l.078.139zm-1.514 6.99l-.061-.121c.002.222.027.297.061.121zm.08 6.268l.036.436.025.16-.061-.596zm1.836 9.473l.164.098-.196-.195.032.097zm4.123.495c.123-.091.236-.192.346-.294l-.245.164c.023.018-.057.094-.101.13zm1.692-2.061l.108-.199-.054.018-.054.181zm5.009-28.44c-.047.07-.136.209-.203.361.069-.086.18-.277.203-.361zm-.178.408l.113-.155-.001-.032-.112.187zm3.981 17.012c-.14 1.773-.327 3.342-.567 4.707l.019.031-.026.018-.062.335.036-.041.005.15-.002-.019-.068.059-.021.114c.006.074.026.161-.053.262l-.087.404-.011.045-.066.287.004.041-.012-.006-.011.043c.026.107.014.246.009.359-.258.156.016.495-.211.725l-.08-.037-.068.219.068-.152c.205.129-.168.439-.1.684-.043.066-.133.004-.139.112.08.091-.029.182-.075.271l.003.075.063.014-.114.082.051-.096-.016-.003.013-.072-.015-.087-.045.028-.062.149c.045.18.037.432-.152.535l.053.184c-.121.074-.175.223-.261.303l.062.027c-.1.014-.064.113-.07.184l-.08-.009-.164.378-.029-.173-.131.229c-.074.121-.132.05-.194.064.114.039-.005.189.015.245-.165.038-.119.255-.263.362l.035-.086-.095.118-.006-.026-.057.045-.037.027.037-.027.029-.05c-.036-.042-.119.011-.16.072.023.063-.202.143-.167.245-.07-.059-.253.115-.286.008-.11.066-.108.178-.171.268-.116.021-.143.048-.232.006-.04.039-.104.063-.08.115l.118-.039c-.173.149-.321.031-.461.23l-.061-.055-.083.092.006-.203-.172.074-.076.156.016.042-.016-.042-.036-.092c-.11.096-.174.217-.329.323l-.198-.138-.225.08.08.031.067-.029-.067.029c-.057.033-.136.07-.2.039l-.234.255-.156-.069c-.074.053-.142.004-.149.105l.04-.143-.053.002-.024.008c-.113.047-.157.212-.22.068-.168.209.378-.001.119.16l-.125-.029c-.244.071-.677.104-.887-.15l.059.008c-.001-.166-.001-.329.034-.447l.102.02c.069-.08.052-.275.171-.234l-.054.091.319-.269.057-.052-.18-.093.32-.074-.007-.123c.258-.159.111-.172.295-.309l-.045-.025.173-.09c-.045.025-.071.074-.048.112l.16-.178c-.024-.04-.167.055-.09-.087.136-.217.352.008.43-.285l.258-.033.207-.202c-.01-.054-.03-.103.024-.14l.064.053.073-.072c.038-.131.212-.338.226-.472l.18-.009-.04.098.011-.002.089-.095.01-.011.006-.104-.09-.07.153-.127c.025.002.102.041.123.096l.031-.033c.017-.051.038-.111.09-.121l-.159-.121.124.02-.082-.166.29-.329c-.001.132-.053.117-.124.231.058 0 .101-.002.101.082l-.091.049.153.018.22-.259c.009-.044.104-.182.055-.242l.039.015.021-.117-.073.053.107-.24.017.019c.133-.104.102-.203.204-.327.169.051.167-.096.305-.164-.101.08-.073-.107-.137-.133-.048.088.021.164-.079.223.009-.032.011-.099-.041-.061.069-.256.249-.223.371-.377l-.064-.023.128-.021c-.103-.022-.026-.093-.009-.165l-.008-.063.008.063.004.032.222-.207c.067-.098.264.059.264-.001v-.116l-.099.017c-.019-.099-.05-.148-.036-.287l.062.023c-.052.115.026.073.065.098l-.078.184.16-.336c-.058-.008-.043-.119-.127-.03-.009-.066.052-.169-.001-.206l-.119-.12-.012-.228h.012c.031 0 .12-.027.188.102l-.034-.223-.031.051.016-.026.016.074.109-.092c.01.082-.095.289.03.252l.218-.416-.082.012.045-.347c.041.02.123.061.148-.02-.014-.029-.082-.039-.027-.113l-.097.034-.12.097c.057-.092.084-.094.12-.097l.351-.344c-.043-.053-.031-.146-.126-.091l.144-.183-.041-.036.088-.127c-.163-.021.053-.326-.031-.31.172-.126.268-.463.275-.685l.059.063c.074-.419.039-.955.139-1.211l.021.156c.066-.016.069-.204.143-.167l.053.197-.209.199c.007.053.117.053.143.04-.078.151-.021.402-.164.507l.031-.107-.111.11.094.12c-.23.606-.356 1.222-.596 1.774-.039.181-.053.309-.139.453l.016-.019-.028.044.013-.025c-.096.121-.156.358-.193.535.656-1.492 1.198-3.379 1.619-5.66-.069.053-.16.083-.193.033l-.014-.147c.062.041.172-.044.189-.17l.022.261.059-.326c-.034-.066-.142-.156-.117-.308l.104-.095-.055.147c-.043.086.041.083.088.083h.002l.004-.005-.002-.015.006-.047-.006.055.005.008.002-.007.05-.193-.049-.051.031.003v.038l.053-.099-.025-.105.061.06c.042-.065.097-.107.158-.125l-.023-.017c-.023-.021-.018-.069-.129-.12l.123-.065.016-.006.061-.004.02-.002.103.022-.056.075.18.143c.031.02.058.043.056.133l-.183-.121.059.105.08.097-.055.001-.009.284zm-1.912 9.301l-.09.176.107-.117-.017-.059zm-.268.491l-.051.085-.062.236c.199-.115-.102.109.073.084.104-.218-.005-.225.14-.43.008-.099-.074-.001-.1.025zm-.621.849l-.074.078.074-.078zm-.468.423l-.014.01.026.025-.012-.035zm-.139.1l-.351.221c-.017.08-.028.152-.158.176l.078.073c.104-.064.241-.218.173-.301.117.001.197-.093.258-.169zm-.772.444l-.136.066.001.009c.085-.001.117-.033.135-.075zm-2.995.799l-.001-.002v.002h.001zm1.004-1.312l.51-.479-.064-.068-.003.104c-.284.019-.243.305-.457.439l.014.004zm.59-.558l.066-.062-.066.062zm.617-.601l.131-.135-.133.107.002.028zm1.171-1.288l.1-.121-.027-.074-.073.195zm.416-.529l.069-.094-.078-.092c-.087.13-.023.141.009.186zm.452-.663l.075-.122-.065-.029-.01.151zm.086-.142l.148-.263c-.072-.046-.178.143-.175-.073-.146.154.062.21.027.336zm.444-.853l.108-.237-.046-.017c-.057.096-.043.17-.062.254zm2.049-6.959l-.026-.098c-.009.041-.037.13.026.098zm-.629 1.175l.017.036-.017-.036zm.074.741l-.058-.348.073.11.007-.29.084.163c.014-.083.031-.209-.053-.295l.104-.118-.135.021-.016.143c-.058.007-.058-.049-.063-.089.009.09-.142.213-.162.389-.024.185.183.183.219.314zm-.141-.015l-.053.01h.068l-.015-.01zm.087.387l-.041-.185.068-.027-.096-.053c-.129.052-.008.212-.008.307-.104.226-.059-.024-.187.044l.073-.153c-.16.117-.082.324-.073.424l-.009.053.009-.053.057-.075.014.105c.115-.079.159-.16.193-.387zm.064-.301l-.035.088.035-.088zm-.179.646l-.039.115.064-.035-.025-.08zm-.792 2.23l-.042-.053c-.026.064-.01.092.042.053zm-.753 1.752l-.034.13-.003.052.037-.182zm-1.418 2.542l.015.083.028-.084-.043.001zm-.892.988l-.079.109.08-.044-.001-.065zm-.549.589l-.051.047.036.02.015-.067zm4.648-3.912l.029-.127-.029.127zm-.012-.144l-.036.052.015.013.021-.065zm9.086-1.195c-.917 3.144-2.213 4.866-3.889 5.162-.44.077-.99-.202-1.647-.837-.643-.614-1.012-1.176-1.103-1.686-.025-.153.108-.451.406-.891.131-.434.232-.821.31-1.162l-.021-.082.056-.074.083-.452.065-.501-.044.206.034-.387v.045c1-.379-.025-.655.133-1.241l-.056-.863-.077-.469v-.015l.061-.553.011-.153.036.01.006-.088c-.064-.259-.104-.641-.15-.937.166-.596-.248-1.229-.188-1.979l.095.021-.073-.63.033.47c-.25-.14-.115-1.237-.322-1.771-.002-.206.109-.142.055-.412-.131-.152-.021-.497.027-.751l.002-.187-.069.021.131-.297c-.038.081-.056.178-.062.275l.018-.006-.02.193.018.202.049-.112.07-.415c-.035-.41.005-1.024.23-1.441l-.042-.332c.146-.291.228-.91.343-.91h-.07c.117 0 .094-.385.109-.55l.095-.091c.085-.234.138-.516.214-.777.07-.283.157-.471.23-.541l-.122.507c.108-.384.206-.344.336-.616.06-.062.133-.081.183-.052l.064.102.019.216c.022-.24.134.181.176.199-.02.265-.001.484.046.717.045.287.09.424.092.653l-.049-.206c-.043.211.034.21.038.371l-.024-.031.003.181.003.114-.003-.114-.022-.136c-.059.001-.059.25-.031.431.064.045.016.632.125.702-.088.066-.021.702-.129.633.01.34.113.478.164.727-.027.293-.014.386-.09.542.02.137.018.317.074.319l.012-.317c.066.568-.1.788.035 1.336l-.072.088-.206.296c-.083-.002-.456-.196-.456-.229v.038c0 .09.272.147.265.191l.134.263.193.348.077.001-.026-.001-.091-.003c.05.364.147.638.197 1.115-.038.021-.142.394-.198.362l.009.632c.033.019.06.02.06-.171l-.008-.193.008.193c.015.17.025.402-.024.532l.173.801c-.102-.143-.02.386-.11.335.032.228-.056.359.038.459-.099.221-.027-.416-.112-.215-.095.423.126.745-.065.813.108.561.18-.94.199-.183l-.083.289c-.007.549-.128 1.29-.172 1.939l-.036-.079c-.129.298-.155.735-.206.986l-.091-.051c-.086.257-.059.632-.193.655l.062-.244c-.211.384-.123.484-.398.949l-.102.212c.084.004.211-.086.253-.09-.279.386-.151.158-.493.561l.042-.021.216-.024c.26.049.358.02.465 0 .103-.029.182-.053.471-.1l-.05-.041.472-.074c-.128.033-.248.082-.262.13.18-.011.377-.133.576-.22.005-.045-.406.082-.064-.106.518-.323.703-.07 1.137-.613l.504-.263.092-.098c.145-.162.275-.327.393-.494.012-.093 0-.163.098-.301 0 .054.041.043.088.024l.129-.224.1-.31c.113-.325.199-.758.164-.97.095-.045.094-.416.169-.319-.005.112-.035.246.007.265l.014-.033.008-.061.025-.307c-.008-.113-.03-.207-.059-.22l-.113.023c.01-.178.031-.415.002-.52.018-.043.121-.104.121-.038v-.124c0-.125-.02-.282.01-.394-.092-.271-.119.332-.182.052l.107-.185-.175-.18c.063-.678-.122-.578-.051-1.173.099.269.054.331.094.684.039-.102.067-.181.13-.015-.047-.01-.02.12-.023.258l.115-.235-.051-.91c-.028-.113-.073-.536-.15-.574l.037-.037c-.018-.156-.028-.268-.075-.275l-.009.233c-.136-.317.005-.605-.111-.677l.025.011c.008-.441-.088-.599-.108-1.031.156-.165.044-.477.098-.841-.017.33-.132-.122-.194-.077.027.269.131.327.104.615-.019-.086-.066-.233-.074-.068-.132-.674.01-.887-.005-1.416l-.064.044.082-.234c-.093.1-.084-.174-.123-.366l-.049-.138.049.138.027.071c-.014-.254-.071-.512-.109-.547-.008-.338.062.104.065-.115l-.044-.31.085-.06c-.036-.226.022-.413.036-.773.043.021.082.084.117-.049-.057.336.054.129.095.149-.022.119-.045.301-.056.5.034-.264.09-.584.17-.961-.062.027-.035-.254-.137.041-.006-.156.076-.467.021-.509-.044.244-.091.355-.144.374l-.014.008.014-.008c.039-.159.167-.748.227-.489l.023-.812-.035.014.033-.156.002.142.148-.338c-.01.2-.17.797-.02.599.09-.467.259-.793.359-1.211l-.101.087c.071-.142.077-.271.087-.412l.02-.226.093-.329c.034.044.105.106.194-.163.01-.093-.056-.132.076-.401l-.137.141-.262.53c.179-.496.221-.5.262-.53l.084-.17.092-.127.172-.222.172-.144c.06-.042.131-.104.234-.075.123-.02.207.162.135-.084.156.225.077.308.111.59l.051-.023c.006.255.01.333-.037.567.086-.151.088.211.088.513 0 .214-.008.426.027.373-.123.458-.112 1.39-.049 1.962l-.077-.117c.061 1.124.257 2.484.233 3.221l-.065-.392c-.06.083-.007.571-.089.524l-.108-.473c.153-.133.004-.685.142-.653-.021-.131-.128-.058-.148-.006.029-.442-.098-1.045.004-1.415l.004.295c.08.047.014-.276.072-.36l-.126-.241c.017-.858.005-1.703.002-2.531-.007-.403.019-.947.001-1.31l-.052-.285c-.013-.091-.12-.195-.22-.125-.165.11-.241.287-.33.46l-.402 1.285.024-.057-.048.13.023-.073c-.156.363-.287.993-.367 1.458.257-1.027.513-1.9.77-2.609.135-.356.266-.543.382-.563.085-.015.137.063.167.226.017.103.026.236.018.407-.051.722-.021 3.38.089 7.972.03 1.272.008 2.444-.062 3.516.07-.167.158-.284.195-.168l.015.38c-.064-.079-.174.187-.201.526-.084-.072.076-.566-.013-.674-.021.301-.044.594-.073.879.031.151.125.377.09.732l-.113.279c-.029-.218.058-.185.066-.431.056-.23-.025-.375-.077-.236l-.151.003-.165.078v.057c0 .037.16.078.137.136l.085-.136.034-.015-.052.545.439.096.356.025v-.091l-.432.279-.146.19c-.014.021-.131-.192-.171-.051l-.144.533.191-.128-.062.401-.09-.04c-.115.401.021.291-.129.645l-.018-.486c-.071.223-.055.465-.086.621-.033.015-.047-.041-.053-.129l-.109.42zm-5.65-12.051l.125-.511c-.034.064-.072.168-.141.389l.016.122zm.38-1.437l.076-.247c.026-.172.082-.386.156-.697-.136.229-.098.141-.041-.007.051-.146.129-.289.028-.237-.148.405-.173.591-.196.747-.027.168-.045.295-.147.605-.024.248.093-.084.124-.164zm.874-.567l.014.291-.014-.291zm.069 1.675l.001.045.038-.019-.039-.026zm.015.422l.032 1.113c.066.148.133.257.098.597.03.001.074.023.101-.089-.019-.317-.093-.817-.198-.772.054-.271.004-.599-.033-.849zm.062 2.366l.01.416.018.014c.032-.223.008-.334-.028-.43zm-.097 7.631l-.003.021.01-.004-.007-.017zm-.014.111l-.035.244.042-.226-.007-.018zm-.104.667l-.006.034.01-.013-.004-.021zm.145 3.091c.604-.123 1.162-.377 1.676-.76l-.057-.075-.115.173c-.568.153-.857.555-1.526.652l.022.01zm1.904-.942l.187-.163-.187.163zm1.375-1.798c.07-.156.129-.313.176-.473-.039-.008-.074.272-.175.414l-.001.059zm.254-4.581l-.026-.405-.075-.103.101.508zm-.124-1.767l-.022-.311-.121-.068c.034.417.086.336.143.379zm-.16-2.13l-.03-.38c-.033-.12-.049-.014-.065.035l.095.345zm-.035-.441l-.062-.77v-.021c-.085-.01-.043.571-.184.061-.009.559.182.408.246.73zm.204-2.536l.149-.654-.049-.006c-.079.279-.076.448-.1.66zm1.271 10.752l.083.085c-.026-.043-.034-.243-.083-.085zm.639-3.371l-.02-.088.02.088zm-.179-1.912l.122.881c-.039-.083-.08-.051-.092-.252l.035.763-.104-.385c0 .226-.007.564.084.75l-.096.356.135-.116c.046-.145-.089-.299.004-.385.057-.043.062.103.072.206-.018-.234.124-.634.113-1.108-.008-.501-.209-.385-.273-.71zm.14-.037l.051-.056-.066.041.015.015zm-.178-.956l.088.457-.059.11.104.083c.112-.211-.046-.561-.071-.804.035-.649.062.028.166-.228l-.027.442c.121-.4-.012-.896-.049-1.148l-.008-.139.008.139c-.011.074-.047.093-.033.233l-.045-.263c-.084.276-.103.51-.074 1.118zm.012.817c-.008-.17-.002-.234.014-.248-.03.045-.053.102-.014.248zm.002-1.779l.004-.321-.052.127c.007.044.02.202.048.194zm.087-6.419l.056.154c.006-.334-.012-.416-.056-.154zm-2 2.269l-.06.357-.011.135.071-.492zm.172 7.961l.07.138-.044-.216-.026.078zm-.067 3.492l-.081.334.096-.205-.015-.129zm-.974 1.809l-.122.129.048.004.074-.133zm-3.719-4.065l.003.338c.017-.089.021-.27-.003-.338zm.049.362l.022-.157-.018-.023-.004.18zm10.096-13.693l.083-.447-.073.219-.01.228zm.385-1.133c.035.041.062.123.077.245v.002l.067.312c-.005-.642.025.334.061-.223l-.094-.197-.041-.104-.056-.101c-.027-.045-.118-.043-.157.007l-.014.07c.024-.053.139-.059.157-.011zm.153 2.44l.004.255-.004-.255zm.023 1.484v.04l.038-.017-.038-.023zm.005.372l.009.854.002.13c.063.131.127.228.092.527.027.001.072.021.1-.078-.016-.279-.082-.72-.188-.683.06-.238.015-.528-.015-.75zm.03 2.09l.01.367.018.012c.031-.197.007-.293-.028-.379zm.832 6.662l.008.02.008-.009-.016-.011zm.033.094l.08.209-.063-.197-.017-.012zm.229.546l.018.034.001-.018-.019-.016zm3.154 2.273c.346.03.705.013 1.083-.054.187-.033.364-.075.535-.126l-.025-.09-.146.117c-.526-.06-.872.224-1.462.136l.015.017zm1.865-.264l.199-.081-.199.081zm1.588-1.202l.262-.348-.254.305-.008.043zm3.274-2.013l.226-.28-.003-.116c-.071.132-.138.28-.223.396zm.828-1.334l.141-.252-.035-.087c-.181.287-.138.296-.106.339zm1.377-.863l.176-.295c.029-.112-.035-.039-.072-.012l-.104.307zm.198-.341c.099-.196.187-.415.263-.657-.025-.048-.076.025-.121.095-.052.071-.1.147-.034-.262-.071.177-.101.318-.126.411l.013.147c.022.073.052.136.005.266zm.653-2.184l.141-.089c.103-.018.181.073.227.27v-.007l.016-.037c-.055-.152-.126-.282-.258-.243l-.126.106zm-8.663 12.701l.005.115c.01-.048.127-.182-.005-.115zm2.087-2.229l.014-.08-.014.08zm.591-1.557c-.109.232-.2.472-.28.714-.004-.082-.052-.075.02-.235-.178.288-.123.366-.256.611-.145.024.211-.446.045-.349-.089.177-.205.448-.188.637l-.21.253.163-.041c.09-.102.022-.281.138-.315.068-.014.022.108-.007.198l.497-.818c.196-.367-.027-.386.078-.655zm.132.055l.068-.01-.074-.01.006.02zm-.063-.194c.08-.123.127-.157.145-.157-.047.01-.1.031-.145.157zm.488-.494c-.092.091-.167.197-.232.309l-.108.027.033.123c.194-.059.275-.36.445-.464.237-.064.216-.008.188.007-.031.027-.076.074 0 .109-.088.021-.104-.009-.254.081l.196-.044.17-.03.464-.071.131-.011-.131.011-.217-.037.243-.04c-.129-.039-.241-.075-.388-.091-.149-.018-.327-.036-.54.121zm.788-.093h.292l-.117-.046-.175.046zm4.168-3.598l-.006.111c.101-.14.113-.2.006-.111zm.916-4.899c-.062-.051-.141-.09-.269-.099l-.116.035c.059-.036.148-.023.223-.014l.162.078zm-3.891 5.141l-.062.111.127-.12-.065.009zm-2.692 1.361l-.175.266.144-.149.031-.117zm-1.248 1.33l-.137.075.042.021.095-.096zm-8.011-6.801c-.005.061-.012.181.007.3.016-.078.016-.239-.007-.3zm.052.32l.021-.139-.018-.02-.003.159z"/></svg>